<?xml version="1.0" encoding="UTF-8" standalone="no"?><svg xmlns="http://www.w3.org/2000/svg" xmlns:xlink="http://www.w3.org/1999/xlink" contentStyleType="text/css" height="912px" preserveAspectRatio="none" style="width:630px;height:912px;background:#FFFFFF;" version="1.1" viewBox="0 0 630 912" width="630px" zoomAndPan="magnify"><defs/><g><ellipse cx="453" cy="20" fill="#222222" rx="10" ry="10" style="stroke:#222222;stroke-width:1.0;"/><rect fill="none" height="190.8867" style="stroke:#000000;stroke-width:1.5;" width="232" x="337" y="40"/><path d="M551,40 L551,49.4883 L541,59.4883 L337,59.4883 " fill="none" style="stroke:#000000;stroke-width:1.5;"/><text fill="#000000" font-family="sans-serif" font-size="14" lengthAdjust="spacing" textLength="204" x="340" y="54.5352">Submit Genome (Contributor)</text><rect fill="#F1F1F1" height="34.1328" rx="12.5" ry="12.5" style="stroke:#181818;stroke-width:0.5;" width="107" x="399.5" y="76.4883"/><text fill="#000000" font-family="sans-serif" font-size="12" lengthAdjust="spacing" textLength="87" x="409.5" y="98.0898">Clone IDC repo</text><rect fill="#F1F1F1" height="34.1328" rx="12.5" ry="12.5" style="stroke:#181818;stroke-width:0.5;" width="212" x="347" y="130.6211"/><text fill="#000000" font-family="sans-serif" font-size="12" lengthAdjust="spacing" textLength="192" x="357" y="152.2227">Update genome file (or directory)</text><rect fill="#F1F1F1" height="34.1328" rx="12.5" ry="12.5" style="stroke:#181818;stroke-width:0.5;" width="124" x="391" y="184.7539"/><text fill="#000000" font-family="sans-serif" font-size="12" lengthAdjust="spacing" textLength="104" x="401" y="206.3555">Issue Pull Request</text><rect fill="none" height="194.1309" style="stroke:#000000;stroke-width:1.5;" width="566" x="11" y="240.8867"/><path d="M181,240.8867 L181,250.375 L171,260.375 L11,260.375 " fill="none" style="stroke:#000000;stroke-width:1.5;"/><text fill="#000000" font-family="sans-serif" font-size="14" lengthAdjust="spacing" textLength="160" x="14" y="255.4219">Continuous Integration</text><rect fill="#F1F1F1" height="34.1328" rx="12.5" ry="12.5" style="stroke:#181818;stroke-width:0.5;" width="117" x="394.5" y="277.375"/><text fill="#000000" font-family="sans-serif" font-size="12" lengthAdjust="spacing" textLength="97" x="404.5" y="298.9766">Validate artifacts</text><path d="M21,328.2637 L21,368.8848 A0,0 0 0 0 21,368.8848 L319,368.8848 A0,0 0 0 0 319,368.8848 L319,352.5742 L339,348.5742 L319,344.5742 L319,338.2637 L309,328.2637 L21,328.2637 A0,0 0 0 0 21,328.2637 " fill="#FEFFDD" style="stroke:#181818;stroke-width:0.5;"/><path d="M309,328.2637 L309,338.2637 L319,338.2637 L309,328.2637 " fill="#FEFFDD" style="stroke:#181818;stroke-width:0.5;"/><text fill="#000000" font-family="sans-serif" font-size="13" lengthAdjust="spacing" textLength="275" x="27" y="345.832">Just run the fetch_source or some sampling</text><text fill="#000000" font-family="sans-serif" font-size="13" lengthAdjust="spacing" textLength="277" x="27" y="361.1426">of the downstream managers or all of them?</text><rect fill="#F1F1F1" height="34.1328" rx="12.5" ry="12.5" style="stroke:#181818;stroke-width:0.5;" width="228" x="339" y="331.5078"/><text fill="#000000" font-family="sans-serif" font-size="12" lengthAdjust="spacing" textLength="208" x="349" y="353.1094">Dry run execution of data managers</text><rect fill="#F1F1F1" height="34.1328" rx="12.5" ry="12.5" style="stroke:#181818;stroke-width:0.5;" width="135" x="385.5" y="388.8848"/><text fill="#000000" font-family="sans-serif" font-size="12" lengthAdjust="spacing" textLength="115" x="395.5" y="410.4863">Summarize addition</text><rect fill="none" height="212.7539" style="stroke:#000000;stroke-width:1.5;" width="295" x="324.75" y="445.0176"/><path d="M481.75,445.0176 L481.75,454.5059 L471.75,464.5059 L324.75,464.5059 " fill="none" style="stroke:#000000;stroke-width:1.5;"/><text fill="#000000" font-family="sans-serif" font-size="14" lengthAdjust="spacing" textLength="147" x="327.75" y="459.5527">Review (IDC reviewer)</text><rect fill="#F1F1F1" height="34.1328" rx="12.5" ry="12.5" style="stroke:#181818;stroke-width:0.5;" width="79" x="413.5" y="481.5059"/><text fill="#000000" font-family="sans-serif" font-size="12" lengthAdjust="spacing" textLength="59" x="423.5" y="503.1074">Review PR</text><polygon fill="#F1F1F1" points="433,535.6387,473,535.6387,485,547.6387,473,559.6387,433,559.6387,421,547.6387,433,535.6387" style="stroke:#181818;stroke-width:0.5;"/><text fill="#000000" font-family="sans-serif" font-size="11" lengthAdjust="spacing" textLength="40" x="433" y="551.7959">accept?</text><rect fill="#F1F1F1" height="34.1328" rx="12.5" ry="12.5" style="stroke:#181818;stroke-width:0.5;" width="75" x="344.75" y="569.6387"/><text fill="#000000" font-family="sans-serif" font-size="12" lengthAdjust="spacing" textLength="55" x="354.75" y="591.2402">Merge PR</text><rect fill="#F1F1F1" height="34.1328" rx="12.5" ry="12.5" style="stroke:#181818;stroke-width:0.5;" width="168" x="439.75" y="569.6387"/><text fill="#000000" font-family="sans-serif" font-size="12" lengthAdjust="spacing" textLength="148" x="449.75" y="591.2402">Close PR with explanation</text><ellipse cx="523.75" cy="634.7715" fill="none" rx="11" ry="11" style="stroke:#222222;stroke-width:1.0;"/><ellipse cx="523.75" cy="634.7715" fill="#222222" rx="6" ry="6" style="stroke:#111111;stroke-width:1.0;"/><rect fill="none" height="190.8867" style="stroke:#000000;stroke-width:1.5;" width="180" x="363" y="668.2246"/><path d="M533,668.2246 L533,677.7129 L523,687.7129 L363,687.7129 " fill="none" style="stroke:#000000;stroke-width:1.5;"/><text fill="#000000" font-family="sans-serif" font-size="14" lengthAdjust="spacing" textLength="160" x="366" y="682.7598">Continuous Integration</text><rect fill="#F1F1F1" height="34.1328" rx="12.5" ry="12.5" style="stroke:#181818;stroke-width:0.5;" width="152" x="377" y="704.7129"/><text fill="#000000" font-family="sans-serif" font-size="12" lengthAdjust="spacing" textLength="132" x="387" y="726.3145">Re-run data managers</text><rect fill="#F1F1F1" height="34.1328" rx="12.5" ry="12.5" style="stroke:#181818;stroke-width:0.5;" width="140" x="383" y="758.8457"/><text fill="#000000" font-family="sans-serif" font-size="12" lengthAdjust="spacing" textLength="120" x="393" y="780.4473">Place data on CVMFS</text><rect fill="#F1F1F1" height="34.1328" rx="12.5" ry="12.5" style="stroke:#181818;stroke-width:0.5;" width="126" x="390" y="812.9785"/><text fill="#000000" font-family="sans-serif" font-size="12" lengthAdjust="spacing" textLength="106" x="400" y="834.5801">Summarize results</text><ellipse cx="453" cy="890.1113" fill="none" rx="11" ry="11" style="stroke:#222222;stroke-width:1.0;"/><ellipse cx="453" cy="890.1113" fill="#222222" rx="6" ry="6" style="stroke:#111111;stroke-width:1.0;"/><line style="stroke:#181818;stroke-width:1.0;" x1="453" x2="453" y1="110.6211" y2="130.6211"/><polygon fill="#181818" points="449,120.6211,453,130.6211,457,120.6211,453,124.6211" style="stroke:#181818;stroke-width:1.0;"/><line style="stroke:#181818;stroke-width:1.0;" x1="453" x2="453" y1="164.7539" y2="184.7539"/><polygon fill="#181818" points="449,174.7539,453,184.7539,457,174.7539,453,178.7539" style="stroke:#181818;stroke-width:1.0;"/><line style="stroke:#181818;stroke-width:1.0;" x1="453" x2="453" y1="30" y2="76.4883"/><polygon fill="#181818" points="449,66.4883,453,76.4883,457,66.4883,453,70.4883" style="stroke:#181818;stroke-width:1.0;"/><line style="stroke:#181818;stroke-width:1.0;" x1="453" x2="453" y1="311.5078" y2="331.5078"/><polygon fill="#181818" points="449,321.5078,453,331.5078,457,321.5078,453,325.5078" style="stroke:#181818;stroke-width:1.0;"/><line style="stroke:#181818;stroke-width:1.0;" x1="453" x2="453" y1="365.6406" y2="388.8848"/><polygon fill="#181818" points="449,378.8848,453,388.8848,457,378.8848,453,382.8848" style="stroke:#181818;stroke-width:1.0;"/><line style="stroke:#181818;stroke-width:1.0;" x1="453" x2="453" y1="218.8867" y2="277.375"/><polygon fill="#181818" points="449,267.375,453,277.375,457,267.375,453,271.375" style="stroke:#181818;stroke-width:1.0;"/><line style="stroke:#181818;stroke-width:1.0;" x1="523.75" x2="523.75" y1="603.7715" y2="623.7715"/><polygon fill="#181818" points="519.75,613.7715,523.75,623.7715,527.75,613.7715,523.75,617.7715" style="stroke:#181818;stroke-width:1.0;"/><line style="stroke:#181818;stroke-width:1.0;" x1="421" x2="382.25" y1="547.6387" y2="547.6387"/><line style="stroke:#181818;stroke-width:1.0;" x1="382.25" x2="382.25" y1="547.6387" y2="569.6387"/><polygon fill="#181818" points="378.25,559.6387,382.25,569.6387,386.25,559.6387,382.25,563.6387" style="stroke:#181818;stroke-width:1.0;"/><line style="stroke:#181818;stroke-width:1.0;" x1="485" x2="523.75" y1="547.6387" y2="547.6387"/><line style="stroke:#181818;stroke-width:1.0;" x1="523.75" x2="523.75" y1="547.6387" y2="569.6387"/><polygon fill="#181818" points="519.75,559.6387,523.75,569.6387,527.75,559.6387,523.75,563.6387" style="stroke:#181818;stroke-width:1.0;"/><line style="stroke:#181818;stroke-width:1.0;" x1="382.25" x2="382.25" y1="603.7715" y2="650.7715"/><line style="stroke:#181818;stroke-width:1.0;" x1="382.25" x2="453" y1="650.7715" y2="650.7715"/><line style="stroke:#181818;stroke-width:1.0;" x1="453" x2="453" y1="650.7715" y2="704.7129"/><polygon fill="#181818" points="449,694.7129,453,704.7129,457,694.7129,453,698.7129" style="stroke:#181818;stroke-width:1.0;"/><line style="stroke:#181818;stroke-width:1.0;" x1="453" x2="453" y1="515.6387" y2="535.6387"/><polygon fill="#181818" points="449,525.6387,453,535.6387,457,525.6387,453,529.6387" style="stroke:#181818;stroke-width:1.0;"/><line style="stroke:#181818;stroke-width:1.0;" x1="453" x2="453" y1="423.0176" y2="481.5059"/><polygon fill="#181818" points="449,471.5059,453,481.5059,457,471.5059,453,475.5059" style="stroke:#181818;stroke-width:1.0;"/><line style="stroke:#181818;stroke-width:1.0;" x1="453" x2="453" y1="738.8457" y2="758.8457"/><polygon fill="#181818" points="449,748.8457,453,758.8457,457,748.8457,453,752.8457" style="stroke:#181818;stroke-width:1.0;"/><line style="stroke:#181818;stroke-width:1.0;" x1="453" x2="453" y1="792.9785" y2="812.9785"/><polygon fill="#181818" points="449,802.9785,453,812.9785,457,802.9785,453,806.9785" style="stroke:#181818;stroke-width:1.0;"/><line style="stroke:#181818;stroke-width:1.0;" x1="453" x2="453" y1="847.1113" y2="879.1113"/><polygon fill="#181818" points="449,869.1113,453,879.1113,457,869.1113,453,873.1113" style="stroke:#181818;stroke-width:1.0;"/><!--MD5=[e8e584772107b526e32ed257f8581e07]
@startuml

start
group Submit Genome (Contributor) 
    :Clone IDC repo;
    :Update genome file (or directory);
    :Issue Pull Request;
end group
group Continuous Integration
    :Validate artifacts;
    :Dry run execution of data managers;
    note 
       Just run the fetch_source or some sampling
       of the downstream managers or all of them?
    end note
    :Summarize addition;
end group
group Review (IDC reviewer)
    :Review PR;
    if (accept?) then
      :Merge PR;
    else
      :Close PR with explanation;
      stop
    endif
end group
group Continuous Integration
    :Re-run data managers;
    :Place data on CVMFS;
    :Summarize results;
end group
stop
@enduml

PlantUML version 1.2022.8(Sun Sep 25 05:00:33 EDT 2022)
(GPL source distribution)
Java Runtime: Java(TM) SE Runtime Environment
JVM: Java HotSpot(TM) 64-Bit Server VM
Default Encoding: UTF-8
Language: en
Country: US
--></g></svg>