<?xml version="1.0" encoding="UTF-8" standalone="no"?><svg xmlns="http://www.w3.org/2000/svg" xmlns:xlink="http://www.w3.org/1999/xlink" contentStyleType="text/css" height="746px" preserveAspectRatio="none" style="width:316px;height:746px;background:#FFFFFF;" version="1.1" viewBox="0 0 316 746" width="316px" zoomAndPan="magnify"><defs/><g><ellipse cx="139" cy="20" fill="#222222" rx="10" ry="10" style="stroke:#222222;stroke-width:1.0;"/><rect fill="none" height="190.8867" style="stroke:#000000;stroke-width:1.5;" width="232" x="23" y="40"/><path d="M233,40 L233,49.4883 L223,59.4883 L23,59.4883 " fill="none" style="stroke:#000000;stroke-width:1.5;"/><text fill="#000000" font-family="sans-serif" font-size="14" lengthAdjust="spacing" textLength="200" x="26" y="54.5352">Submit Indexer (Contributor)</text><rect fill="#F1F1F1" height="34.1328" rx="12.5" ry="12.5" style="stroke:#181818;stroke-width:0.5;" width="107" x="85.5" y="76.4883"/><text fill="#000000" font-family="sans-serif" font-size="12" lengthAdjust="spacing" textLength="87" x="95.5" y="98.0898">Clone IDC repo</text><rect fill="#F1F1F1" height="34.1328" rx="12.5" ry="12.5" style="stroke:#181818;stroke-width:0.5;" width="212" x="33" y="130.6211"/><text fill="#000000" font-family="sans-serif" font-size="12" lengthAdjust="spacing" textLength="192" x="43" y="152.2227">Update data_managers_tools.yml</text><rect fill="#F1F1F1" height="34.1328" rx="12.5" ry="12.5" style="stroke:#181818;stroke-width:0.5;" width="124" x="77" y="184.7539"/><text fill="#000000" font-family="sans-serif" font-size="12" lengthAdjust="spacing" textLength="104" x="87" y="206.3555">Issue Pull Request</text><rect fill="none" height="136.7539" style="stroke:#000000;stroke-width:1.5;" width="180" x="49" y="241.3398"/><path d="M219,241.3398 L219,250.8281 L209,260.8281 L49,260.8281 " fill="none" style="stroke:#000000;stroke-width:1.5;"/><text fill="#000000" font-family="sans-serif" font-size="14" lengthAdjust="spacing" textLength="160" x="52" y="255.875">Continuous Integration</text><rect fill="#F1F1F1" height="34.1328" rx="12.5" ry="12.5" style="stroke:#181818;stroke-width:0.5;" width="117" x="80.5" y="277.8281"/><text fill="#000000" font-family="sans-serif" font-size="12" lengthAdjust="spacing" textLength="97" x="90.5" y="299.4297">Validate artifacts</text><rect fill="#F1F1F1" height="34.1328" rx="12.5" ry="12.5" style="stroke:#181818;stroke-width:0.5;" width="135" x="71.5" y="331.9609"/><text fill="#000000" font-family="sans-serif" font-size="12" lengthAdjust="spacing" textLength="115" x="81.5" y="353.5625">Summarize addition</text><rect fill="none" height="212.7539" style="stroke:#000000;stroke-width:1.5;" width="294.75" x="11" y="388.0938"/><path d="M168,388.0938 L168,397.582 L158,407.582 L11,407.582 " fill="none" style="stroke:#000000;stroke-width:1.5;"/><text fill="#000000" font-family="sans-serif" font-size="14" lengthAdjust="spacing" textLength="147" x="14" y="402.6289">Review (IDC reviewer)</text><rect fill="#F1F1F1" height="34.1328" rx="12.5" ry="12.5" style="stroke:#181818;stroke-width:0.5;" width="79" x="99.5" y="424.582"/><text fill="#000000" font-family="sans-serif" font-size="12" lengthAdjust="spacing" textLength="59" x="109.5" y="446.1836">Review PR</text><polygon fill="#F1F1F1" points="119,478.7148,159,478.7148,171,490.7148,159,502.7148,119,502.7148,107,490.7148,119,478.7148" style="stroke:#181818;stroke-width:0.5;"/><text fill="#000000" font-family="sans-serif" font-size="11" lengthAdjust="spacing" textLength="40" x="119" y="494.8721">accept?</text><rect fill="#F1F1F1" height="34.1328" rx="12.5" ry="12.5" style="stroke:#181818;stroke-width:0.5;" width="75" x="30.75" y="512.7148"/><text fill="#000000" font-family="sans-serif" font-size="12" lengthAdjust="spacing" textLength="55" x="40.75" y="534.3164">Merge PR</text><rect fill="#F1F1F1" height="34.1328" rx="12.5" ry="12.5" style="stroke:#181818;stroke-width:0.5;" width="168" x="125.75" y="512.7148"/><text fill="#000000" font-family="sans-serif" font-size="12" lengthAdjust="spacing" textLength="148" x="135.75" y="534.3164">Close PR with explanation</text><ellipse cx="209.75" cy="577.8477" fill="none" rx="11" ry="11" style="stroke:#222222;stroke-width:1.0;"/><ellipse cx="209.75" cy="577.8477" fill="#222222" rx="6" ry="6" style="stroke:#111111;stroke-width:1.0;"/><rect fill="none" height="82.6211" style="stroke:#000000;stroke-width:1.5;" width="180" x="49" y="611.3008"/><path d="M219,611.3008 L219,620.7891 L209,630.7891 L49,630.7891 " fill="none" style="stroke:#000000;stroke-width:1.5;"/><text fill="#000000" font-family="sans-serif" font-size="14" lengthAdjust="spacing" textLength="160" x="52" y="625.8359">Continuous Integration</text><rect fill="#F1F1F1" height="34.1328" rx="12.5" ry="12.5" style="stroke:#181818;stroke-width:0.5;" width="126" x="76" y="647.7891"/><text fill="#000000" font-family="sans-serif" font-size="12" lengthAdjust="spacing" textLength="106" x="86" y="669.3906">Summarize results</text><ellipse cx="139" cy="724.9219" fill="none" rx="11" ry="11" style="stroke:#222222;stroke-width:1.0;"/><ellipse cx="139" cy="724.9219" fill="#222222" rx="6" ry="6" style="stroke:#111111;stroke-width:1.0;"/><line style="stroke:#181818;stroke-width:1.0;" x1="139" x2="139" y1="110.6211" y2="130.6211"/><polygon fill="#181818" points="135,120.6211,139,130.6211,143,120.6211,139,124.6211" style="stroke:#181818;stroke-width:1.0;"/><line style="stroke:#181818;stroke-width:1.0;" x1="139" x2="139" y1="164.7539" y2="184.7539"/><polygon fill="#181818" points="135,174.7539,139,184.7539,143,174.7539,139,178.7539" style="stroke:#181818;stroke-width:1.0;"/><line style="stroke:#181818;stroke-width:1.0;" x1="139" x2="139" y1="30" y2="76.4883"/><polygon fill="#181818" points="135,66.4883,139,76.4883,143,66.4883,139,70.4883" style="stroke:#181818;stroke-width:1.0;"/><line style="stroke:#181818;stroke-width:1.0;" x1="139" x2="139" y1="311.9609" y2="331.9609"/><polygon fill="#181818" points="135,321.9609,139,331.9609,143,321.9609,139,325.9609" style="stroke:#181818;stroke-width:1.0;"/><line style="stroke:#181818;stroke-width:1.0;" x1="139" x2="139" y1="218.8867" y2="277.8281"/><polygon fill="#181818" points="135,267.8281,139,277.8281,143,267.8281,139,271.8281" style="stroke:#181818;stroke-width:1.0;"/><line style="stroke:#181818;stroke-width:1.0;" x1="209.75" x2="209.75" y1="546.8477" y2="566.8477"/><polygon fill="#181818" points="205.75,556.8477,209.75,566.8477,213.75,556.8477,209.75,560.8477" style="stroke:#181818;stroke-width:1.0;"/><line style="stroke:#181818;stroke-width:1.0;" x1="107" x2="68.25" y1="490.7148" y2="490.7148"/><line style="stroke:#181818;stroke-width:1.0;" x1="68.25" x2="68.25" y1="490.7148" y2="512.7148"/><polygon fill="#181818" points="64.25,502.7148,68.25,512.7148,72.25,502.7148,68.25,506.7148" style="stroke:#181818;stroke-width:1.0;"/><line style="stroke:#181818;stroke-width:1.0;" x1="171" x2="209.75" y1="490.7148" y2="490.7148"/><line style="stroke:#181818;stroke-width:1.0;" x1="209.75" x2="209.75" y1="490.7148" y2="512.7148"/><polygon fill="#181818" points="205.75,502.7148,209.75,512.7148,213.75,502.7148,209.75,506.7148" style="stroke:#181818;stroke-width:1.0;"/><line style="stroke:#181818;stroke-width:1.0;" x1="68.25" x2="68.25" y1="546.8477" y2="593.8477"/><line style="stroke:#181818;stroke-width:1.0;" x1="68.25" x2="139" y1="593.8477" y2="593.8477"/><line style="stroke:#181818;stroke-width:1.0;" x1="139" x2="139" y1="593.8477" y2="647.7891"/><polygon fill="#181818" points="135,637.7891,139,647.7891,143,637.7891,139,641.7891" style="stroke:#181818;stroke-width:1.0;"/><line style="stroke:#181818;stroke-width:1.0;" x1="139" x2="139" y1="458.7148" y2="478.7148"/><polygon fill="#181818" points="135,468.7148,139,478.7148,143,468.7148,139,472.7148" style="stroke:#181818;stroke-width:1.0;"/><line style="stroke:#181818;stroke-width:1.0;" x1="139" x2="139" y1="366.0938" y2="424.582"/><polygon fill="#181818" points="135,414.582,139,424.582,143,414.582,139,418.582" style="stroke:#181818;stroke-width:1.0;"/><line style="stroke:#181818;stroke-width:1.0;" x1="139" x2="139" y1="681.9219" y2="713.9219"/><polygon fill="#181818" points="135,703.9219,139,713.9219,143,703.9219,139,707.9219" style="stroke:#181818;stroke-width:1.0;"/><!--MD5=[3dfdc6acc3c42a96b6fe8e64a1482ab6]
@startuml

start
group Submit Indexer (Contributor) 
    :Clone IDC repo;
    :Update data_managers_tools.yml;
    :Issue Pull Request;
end group
group Continuous Integration
    :Validate artifacts;
    :Summarize addition;
end group
group Review (IDC reviewer)
    :Review PR;
    if (accept?) then
      :Merge PR;
    else
      :Close PR with explanation;
      stop
    endif
end group
group Continuous Integration
    :Summarize results;
end group
stop
@enduml

PlantUML version 1.2022.8(Sun Sep 25 05:00:33 EDT 2022)
(GPL source distribution)
Java Runtime: Java(TM) SE Runtime Environment
JVM: Java HotSpot(TM) 64-Bit Server VM
Default Encoding: UTF-8
Language: en
Country: US
--></g></svg>