<?xml version="1.0" encoding="UTF-8" standalone="no"?><svg xmlns="http://www.w3.org/2000/svg" xmlns:xlink="http://www.w3.org/1999/xlink" contentStyleType="text/css" height="489px" preserveAspectRatio="none" style="width:1212px;height:489px;background:#FFFFFF;" version="1.1" viewBox="0 0 1212 489" width="1212px" zoomAndPan="magnify"><defs/><g><rect fill="#F1F1F1" height="20.4883" rx="5" ry="5" style="stroke:#F1F1F1;stroke-width:1.5;" width="97" x="10" y="214.5"/><text fill="#000000" font-family="sans-serif" font-size="14" font-weight="bold" lengthAdjust="spacing" textLength="65" x="15" y="230.0352">genomes</text><text fill="#000000" font-family="sans-serif" font-size="14" lengthAdjust="spacing" textLength="12" x="90" y="230.0352">   </text><line style="stroke:#000000;stroke-width:1.0;" x1="85" x2="85" y1="214.5" y2="234.9883"/><rect fill="none" height="20.4883" rx="5" ry="5" style="stroke:#000000;stroke-width:1.5;" width="97" x="10" y="214.5"/><rect fill="#F1F1F1" height="40.9766" rx="5" ry="5" style="stroke:#F1F1F1;stroke-width:1.5;" width="22" x="144" y="204"/><text fill="#000000" font-family="sans-serif" font-size="14" lengthAdjust="spacing" textLength="12" x="149" y="219.5352">   </text><line style="stroke:#000000;stroke-width:1.0;" x1="144" x2="166" y1="224.4883" y2="224.4883"/><text fill="#000000" font-family="sans-serif" font-size="14" lengthAdjust="spacing" textLength="12" x="149" y="240.0234">   </text><rect fill="none" height="40.9766" rx="5" ry="5" style="stroke:#000000;stroke-width:1.5;" width="22" x="144" y="204"/><rect fill="#F1F1F1" height="204.8828" rx="5" ry="5" style="stroke:#F1F1F1;stroke-width:1.5;" width="567" x="367.5" y="10"/><text fill="#000000" font-family="sans-serif" font-size="14" font-weight="bold" lengthAdjust="spacing" textLength="43" x="372.5" y="25.5352">dbkey</text><text fill="#000000" font-family="sans-serif" font-size="14" lengthAdjust="spacing" textLength="31" x="463.5" y="25.5352">dm6</text><line style="stroke:#000000;stroke-width:1.0;" x1="458.5" x2="458.5" y1="10" y2="30.4883"/><line style="stroke:#000000;stroke-width:1.0;" x1="367.5" x2="934.5" y1="30.4883" y2="30.4883"/><text fill="#000000" font-family="sans-serif" font-size="14" font-weight="bold" lengthAdjust="spacing" textLength="81" x="372.5" y="46.0234">description</text><text fill="#000000" font-family="sans-serif" font-size="14" lengthAdjust="spacing" textLength="466" x="463.5" y="46.0234">D. melanogaster Aug. 2014 (BDGP Release 6 + ISO1 MT/dm6) (dm6)</text><line style="stroke:#000000;stroke-width:1.0;" x1="458.5" x2="458.5" y1="30.4883" y2="50.9766"/><line style="stroke:#000000;stroke-width:1.0;" x1="367.5" x2="934.5" y1="50.9766" y2="50.9766"/><text fill="#000000" font-family="sans-serif" font-size="14" font-weight="bold" lengthAdjust="spacing" textLength="14" x="372.5" y="66.5117">id</text><text fill="#000000" font-family="sans-serif" font-size="14" lengthAdjust="spacing" textLength="31" x="463.5" y="66.5117">dm6</text><line style="stroke:#000000;stroke-width:1.0;" x1="458.5" x2="458.5" y1="50.9766" y2="71.4648"/><line style="stroke:#000000;stroke-width:1.0;" x1="367.5" x2="934.5" y1="71.4648" y2="71.4648"/><text fill="#000000" font-family="sans-serif" font-size="14" font-weight="bold" lengthAdjust="spacing" textLength="47" x="372.5" y="87">source</text><text fill="#000000" font-family="sans-serif" font-size="14" lengthAdjust="spacing" textLength="30" x="463.5" y="87">ucsc</text><line style="stroke:#000000;stroke-width:1.0;" x1="458.5" x2="458.5" y1="71.4648" y2="91.9531"/><line style="stroke:#000000;stroke-width:1.0;" x1="367.5" x2="934.5" y1="91.9531" y2="91.9531"/><text fill="#000000" font-family="sans-serif" font-size="14" font-weight="bold" lengthAdjust="spacing" textLength="23" x="372.5" y="107.4883">doi</text><text fill="#000000" font-family="sans-serif" font-size="14" lengthAdjust="spacing" textLength="12" x="463.5" y="107.4883">   </text><line style="stroke:#000000;stroke-width:1.0;" x1="458.5" x2="458.5" y1="91.9531" y2="112.4414"/><line style="stroke:#000000;stroke-width:1.0;" x1="367.5" x2="934.5" y1="112.4414" y2="112.4414"/><text fill="#000000" font-family="sans-serif" font-size="14" font-weight="bold" lengthAdjust="spacing" textLength="53" x="372.5" y="127.9766">version</text><text fill="#000000" font-family="sans-serif" font-size="14" lengthAdjust="spacing" textLength="12" x="463.5" y="127.9766">   </text><line style="stroke:#000000;stroke-width:1.0;" x1="458.5" x2="458.5" y1="112.4414" y2="132.9297"/><line style="stroke:#000000;stroke-width:1.0;" x1="367.5" x2="934.5" y1="132.9297" y2="132.9297"/><text fill="#000000" font-family="sans-serif" font-size="14" font-weight="bold" lengthAdjust="spacing" textLength="71" x="372.5" y="148.4648">checksum</text><text fill="#000000" font-family="sans-serif" font-size="14" lengthAdjust="spacing" textLength="12" x="463.5" y="148.4648">   </text><line style="stroke:#000000;stroke-width:1.0;" x1="458.5" x2="458.5" y1="132.9297" y2="153.418"/><line style="stroke:#000000;stroke-width:1.0;" x1="367.5" x2="934.5" y1="153.418" y2="153.418"/><text fill="#000000" font-family="sans-serif" font-size="14" font-weight="bold" lengthAdjust="spacing" textLength="32" x="372.5" y="168.9531">blob</text><text fill="#000000" font-family="sans-serif" font-size="14" lengthAdjust="spacing" textLength="12" x="463.5" y="168.9531">   </text><line style="stroke:#000000;stroke-width:1.0;" x1="458.5" x2="458.5" y1="153.418" y2="173.9063"/><line style="stroke:#000000;stroke-width:1.0;" x1="367.5" x2="934.5" y1="173.9063" y2="173.9063"/><text fill="#000000" font-family="sans-serif" font-size="14" font-weight="bold" lengthAdjust="spacing" textLength="61" x="372.5" y="189.4414">indexers</text><text fill="#000000" font-family="sans-serif" font-size="14" lengthAdjust="spacing" textLength="12" x="463.5" y="189.4414">   </text><line style="stroke:#000000;stroke-width:1.0;" x1="458.5" x2="458.5" y1="173.9063" y2="194.3945"/><line style="stroke:#000000;stroke-width:1.0;" x1="367.5" x2="934.5" y1="194.3945" y2="194.3945"/><text fill="#000000" font-family="sans-serif" font-size="14" font-weight="bold" lengthAdjust="spacing" textLength="54" x="372.5" y="209.9297">exclude</text><text fill="#000000" font-family="sans-serif" font-size="14" lengthAdjust="spacing" textLength="12" x="463.5" y="209.9297">   </text><line style="stroke:#000000;stroke-width:1.0;" x1="458.5" x2="458.5" y1="194.3945" y2="214.8828"/><rect fill="none" height="204.8828" rx="5" ry="5" style="stroke:#000000;stroke-width:1.5;" width="567" x="367.5" y="10"/><rect fill="#F1F1F1" height="15" rx="5" ry="5" style="stroke:#F1F1F1;stroke-width:1.5;" width="30" x="1155" y="60.5"/><rect fill="none" height="15" rx="5" ry="5" style="stroke:#000000;stroke-width:1.5;" width="30" x="1155" y="60.5"/><rect fill="#F1F1F1" height="15" rx="5" ry="5" style="stroke:#F1F1F1;stroke-width:1.5;" width="30" x="1155" y="94.5"/><rect fill="none" height="15" rx="5" ry="5" style="stroke:#000000;stroke-width:1.5;" width="30" x="1155" y="94.5"/><rect fill="#F1F1F1" height="15" rx="5" ry="5" style="stroke:#F1F1F1;stroke-width:1.5;" width="30" x="1155" y="128.5"/><rect fill="none" height="15" rx="5" ry="5" style="stroke:#000000;stroke-width:1.5;" width="30" x="1155" y="128.5"/><rect fill="#F1F1F1" height="15" rx="5" ry="5" style="stroke:#F1F1F1;stroke-width:1.5;" width="30" x="1155" y="162.5"/><rect fill="none" height="15" rx="5" ry="5" style="stroke:#000000;stroke-width:1.5;" width="30" x="1155" y="162.5"/><rect fill="#F1F1F1" height="20.4883" rx="5" ry="5" style="stroke:#F1F1F1;stroke-width:1.5;" width="66" x="1134" y="196.5"/><text fill="#000000" font-family="sans-serif" font-size="14" lengthAdjust="spacing" textLength="56" x="1139" y="212.0352">genome</text><rect fill="none" height="20.4883" rx="5" ry="5" style="stroke:#000000;stroke-width:1.5;" width="66" x="1134" y="196.5"/><rect fill="#F1F1F1" height="20.4883" rx="5" ry="5" style="stroke:#F1F1F1;stroke-width:1.5;" width="44" x="1145" y="234.5"/><text fill="#000000" font-family="sans-serif" font-size="14" lengthAdjust="spacing" textLength="34" x="1150" y="250.0352">bfast</text><rect fill="none" height="20.4883" rx="5" ry="5" style="stroke:#000000;stroke-width:1.5;" width="44" x="1145" y="234.5"/><rect fill="#F1F1F1" height="204.8828" rx="5" ry="5" style="stroke:#F1F1F1;stroke-width:1.5;" width="892" x="205" y="233"/><text fill="#000000" font-family="sans-serif" font-size="14" font-weight="bold" lengthAdjust="spacing" textLength="43" x="210" y="248.5352">dbkey</text><text fill="#000000" font-family="sans-serif" font-size="14" lengthAdjust="spacing" textLength="149" x="301" y="248.5352">Ecoli-O157-H7-Sakai</text><line style="stroke:#000000;stroke-width:1.0;" x1="296" x2="296" y1="233" y2="253.4883"/><line style="stroke:#000000;stroke-width:1.0;" x1="205" x2="1097" y1="253.4883" y2="253.4883"/><text fill="#000000" font-family="sans-serif" font-size="14" font-weight="bold" lengthAdjust="spacing" textLength="81" x="210" y="269.0234">description</text><text fill="#000000" font-family="sans-serif" font-size="14" lengthAdjust="spacing" textLength="214" x="301" y="269.0234">Escherichia coli O157-H7 Sakai</text><line style="stroke:#000000;stroke-width:1.0;" x1="296" x2="296" y1="253.4883" y2="273.9766"/><line style="stroke:#000000;stroke-width:1.0;" x1="205" x2="1097" y1="273.9766" y2="273.9766"/><text fill="#000000" font-family="sans-serif" font-size="14" font-weight="bold" lengthAdjust="spacing" textLength="14" x="210" y="289.5117">id</text><text fill="#000000" font-family="sans-serif" font-size="14" lengthAdjust="spacing" textLength="149" x="301" y="289.5117">Ecoli-O157-H7-Sakai</text><line style="stroke:#000000;stroke-width:1.0;" x1="296" x2="296" y1="273.9766" y2="294.4648"/><line style="stroke:#000000;stroke-width:1.0;" x1="205" x2="1097" y1="294.4648" y2="294.4648"/><text fill="#000000" font-family="sans-serif" font-size="14" font-weight="bold" lengthAdjust="spacing" textLength="47" x="210" y="310">source</text><text fill="#000000" font-family="sans-serif" font-size="14" lengthAdjust="spacing" textLength="791" x="301" y="310">https://swift.rc.nectar.org.au:8888/v1/AUTH_377/public/COMP90014/Assignment1/Ecoli-O157_H7-Sakai-chr.fna</text><line style="stroke:#000000;stroke-width:1.0;" x1="296" x2="296" y1="294.4648" y2="314.9531"/><line style="stroke:#000000;stroke-width:1.0;" x1="205" x2="1097" y1="314.9531" y2="314.9531"/><text fill="#000000" font-family="sans-serif" font-size="14" font-weight="bold" lengthAdjust="spacing" textLength="23" x="210" y="330.4883">doi</text><text fill="#000000" font-family="sans-serif" font-size="14" lengthAdjust="spacing" textLength="12" x="301" y="330.4883">   </text><line style="stroke:#000000;stroke-width:1.0;" x1="296" x2="296" y1="314.9531" y2="335.4414"/><line style="stroke:#000000;stroke-width:1.0;" x1="205" x2="1097" y1="335.4414" y2="335.4414"/><text fill="#000000" font-family="sans-serif" font-size="14" font-weight="bold" lengthAdjust="spacing" textLength="53" x="210" y="350.9766">version</text><text fill="#000000" font-family="sans-serif" font-size="14" lengthAdjust="spacing" textLength="12" x="301" y="350.9766">   </text><line style="stroke:#000000;stroke-width:1.0;" x1="296" x2="296" y1="335.4414" y2="355.9297"/><line style="stroke:#000000;stroke-width:1.0;" x1="205" x2="1097" y1="355.9297" y2="355.9297"/><text fill="#000000" font-family="sans-serif" font-size="14" font-weight="bold" lengthAdjust="spacing" textLength="71" x="210" y="371.4648">checksum</text><text fill="#000000" font-family="sans-serif" font-size="14" lengthAdjust="spacing" textLength="12" x="301" y="371.4648">   </text><line style="stroke:#000000;stroke-width:1.0;" x1="296" x2="296" y1="355.9297" y2="376.418"/><line style="stroke:#000000;stroke-width:1.0;" x1="205" x2="1097" y1="376.418" y2="376.418"/><text fill="#000000" font-family="sans-serif" font-size="14" font-weight="bold" lengthAdjust="spacing" textLength="32" x="210" y="391.9531">blob</text><text fill="#000000" font-family="sans-serif" font-size="14" lengthAdjust="spacing" textLength="12" x="301" y="391.9531">   </text><line style="stroke:#000000;stroke-width:1.0;" x1="296" x2="296" y1="376.418" y2="396.9063"/><line style="stroke:#000000;stroke-width:1.0;" x1="205" x2="1097" y1="396.9063" y2="396.9063"/><text fill="#000000" font-family="sans-serif" font-size="14" font-weight="bold" lengthAdjust="spacing" textLength="61" x="210" y="412.4414">indexers</text><text fill="#000000" font-family="sans-serif" font-size="14" lengthAdjust="spacing" textLength="12" x="301" y="412.4414">   </text><line style="stroke:#000000;stroke-width:1.0;" x1="296" x2="296" y1="396.9063" y2="417.3945"/><line style="stroke:#000000;stroke-width:1.0;" x1="205" x2="1097" y1="417.3945" y2="417.3945"/><text fill="#000000" font-family="sans-serif" font-size="14" font-weight="bold" lengthAdjust="spacing" textLength="54" x="210" y="432.9297">exclude</text><text fill="#000000" font-family="sans-serif" font-size="14" lengthAdjust="spacing" textLength="12" x="301" y="432.9297">   </text><line style="stroke:#000000;stroke-width:1.0;" x1="296" x2="296" y1="417.3945" y2="437.8828"/><rect fill="none" height="204.8828" rx="5" ry="5" style="stroke:#000000;stroke-width:1.5;" width="892" x="205" y="233"/><rect fill="#F1F1F1" height="15" rx="5" ry="5" style="stroke:#F1F1F1;stroke-width:1.5;" width="30" x="1155" y="283.5"/><rect fill="none" height="15" rx="5" ry="5" style="stroke:#000000;stroke-width:1.5;" width="30" x="1155" y="283.5"/><rect fill="#F1F1F1" height="15" rx="5" ry="5" style="stroke:#F1F1F1;stroke-width:1.5;" width="30" x="1155" y="317.5"/><rect fill="none" height="15" rx="5" ry="5" style="stroke:#000000;stroke-width:1.5;" width="30" x="1155" y="317.5"/><rect fill="#F1F1F1" height="15" rx="5" ry="5" style="stroke:#F1F1F1;stroke-width:1.5;" width="30" x="1155" y="351.5"/><rect fill="none" height="15" rx="5" ry="5" style="stroke:#000000;stroke-width:1.5;" width="30" x="1155" y="351.5"/><rect fill="#F1F1F1" height="15" rx="5" ry="5" style="stroke:#F1F1F1;stroke-width:1.5;" width="30" x="1155" y="385.5"/><rect fill="none" height="15" rx="5" ry="5" style="stroke:#000000;stroke-width:1.5;" width="30" x="1155" y="385.5"/><rect fill="#F1F1F1" height="20.4883" rx="5" ry="5" style="stroke:#F1F1F1;stroke-width:1.5;" width="66" x="1134" y="419.5"/><text fill="#000000" font-family="sans-serif" font-size="14" lengthAdjust="spacing" textLength="56" x="1139" y="435.0352">genome</text><rect fill="none" height="20.4883" rx="5" ry="5" style="stroke:#000000;stroke-width:1.5;" width="66" x="1134" y="419.5"/><rect fill="#F1F1F1" height="20.4883" rx="5" ry="5" style="stroke:#F1F1F1;stroke-width:1.5;" width="44" x="1145" y="457.5"/><text fill="#000000" font-family="sans-serif" font-size="14" lengthAdjust="spacing" textLength="34" x="1150" y="473.0352">bfast</text><rect fill="none" height="20.4883" rx="5" ry="5" style="stroke:#000000;stroke-width:1.5;" width="44" x="1145" y="457.5"/><path d="M923.5,101.5 L936.5,101.5 C1015.5874,101.5 1108.4355,82.1452 1147.5818,73.0809 " fill="none" style="stroke:#000000;stroke-width:1.0;stroke-dasharray:3.0,3.0;"/><path d="M1148.2888,76.0865 L1149.836,72.5507 L1146.8749,70.0753 L1155.0959,71.3136 L1148.2888,76.0865 " fill="#000000" style="stroke:#000000;stroke-width:1.0;"/><ellipse cx="923.5" cy="101.5" fill="#000000" rx="3" ry="3" style="stroke:#000000;stroke-width:1.0;"/><path d="M923.5,122.5 L936.5,122.5 C1015.0811,122.5 1108.1984,110.7698 1147.4985,105.2763 " fill="none" style="stroke:#000000;stroke-width:1.0;stroke-dasharray:3.0,3.0;"/><path d="M1147.927,108.2942 L1149.762,104.955 L1147.0701,102.2584 L1155.0433,104.2052 L1147.927,108.2942 " fill="#000000" style="stroke:#000000;stroke-width:1.0;"/><ellipse cx="923.5" cy="122.5" fill="#000000" rx="3" ry="3" style="stroke:#000000;stroke-width:1.0;"/><path d="M923.5,143.5 L936.5,143.5 C1014.8657,143.5 1108.181,139.3899 1147.5218,137.4685 " fill="none" style="stroke:#000000;stroke-width:1.0;stroke-dasharray:3.0,3.0;"/><path d="M1147.68,140.6565 L1149.9128,137.3498 L1147.3635,134.2805 L1155.4918,137.0728 L1147.68,140.6565 " fill="#000000" style="stroke:#000000;stroke-width:1.0;"/><ellipse cx="923.5" cy="143.5" fill="#000000" rx="3" ry="3" style="stroke:#000000;stroke-width:1.0;"/><path d="M923.5,163.5 L936.5,163.5 C1014.8657,163.5 1108.181,167.6101 1147.5218,169.5315 " fill="none" style="stroke:#000000;stroke-width:1.0;stroke-dasharray:3.0,3.0;"/><path d="M1147.3635,172.7195 L1149.9128,169.6502 L1147.68,166.3435 L1155.4918,169.9272 L1147.3635,172.7195 " fill="#000000" style="stroke:#000000;stroke-width:1.0;"/><ellipse cx="923.5" cy="163.5" fill="#000000" rx="3" ry="3" style="stroke:#000000;stroke-width:1.0;"/><path d="M923.5,184.5 L936.5,184.5 C1003.4273,184.5 1080.8136,193.8451 1126.5965,200.354 " fill="none" style="stroke:#000000;stroke-width:1.0;stroke-dasharray:3.0,3.0;"/><path d="M1126.157,203.4021 L1128.8826,200.6836 L1127.036,197.3058 L1134.2168,201.4528 L1126.157,203.4021 " fill="#000000" style="stroke:#000000;stroke-width:1.0;"/><ellipse cx="923.5" cy="184.5" fill="#000000" rx="3" ry="3" style="stroke:#000000;stroke-width:1.0;"/><path d="M923.5,204.5 L936.5,204.5 C1008.8261,204.5 1027.1684,209.8729 1098,224.5 C1111.3632,227.2596 1125.9074,231.3467 1138.1427,235.1082 " fill="none" style="stroke:#000000;stroke-width:1.0;stroke-dasharray:3.0,3.0;"/><path d="M1137.2286,238.0237 L1140.3293,235.7938 L1139.0568,232.1928 L1145.4313,237.3934 L1137.2286,238.0237 " fill="#000000" style="stroke:#000000;stroke-width:1.0;"/><ellipse cx="923.5" cy="204.5" fill="#000000" rx="3" ry="3" style="stroke:#000000;stroke-width:1.0;"/><path d="M156,213.5 L169,213.5 C231.4808,213.5 297.5694,205.2532 360.1023,193.4726 " fill="none" style="stroke:#000000;stroke-width:1.0;stroke-dasharray:3.0,3.0;"/><path d="M360.6838,196.5157 L362.3846,193.0364 L359.5207,190.4294 L367.7101,192.0187 L360.6838,196.5157 " fill="#000000" style="stroke:#000000;stroke-width:1.0;"/><ellipse cx="156" cy="213.5" fill="#000000" rx="3" ry="3" style="stroke:#000000;stroke-width:1.0;"/><path d="M1085,324.5 L1098,324.5 C1100.7507,324.5 1128.9658,310.5067 1148.3148,300.7445 " fill="none" style="stroke:#000000;stroke-width:1.0;stroke-dasharray:3.0,3.0;"/><path d="M1149.7133,303.5085 L1150.3878,299.6956 L1146.9163,297.9804 L1155.2248,297.2482 L1149.7133,303.5085 " fill="#000000" style="stroke:#000000;stroke-width:1.0;"/><ellipse cx="1085" cy="324.5" fill="#000000" rx="3" ry="3" style="stroke:#000000;stroke-width:1.0;"/><path d="M1085,345.5 L1098,345.5 C1115.5613,345.5 1134.6766,339.3681 1148.2408,333.8949 " fill="none" style="stroke:#000000;stroke-width:1.0;stroke-dasharray:3.0,3.0;"/><path d="M1149.4127,336.6626 L1150.3166,333.0159 L1147.0689,331.1271 L1155.1602,330.9651 L1149.4127,336.6626 " fill="#000000" style="stroke:#000000;stroke-width:1.0;"/><ellipse cx="1085" cy="345.5" fill="#000000" rx="3" ry="3" style="stroke:#000000;stroke-width:1.0;"/><path d="M1085,366.5 L1098,366.5 C1114.8294,366.5 1133.8647,364.3831 1147.5901,362.4775 " fill="none" style="stroke:#000000;stroke-width:1.0;stroke-dasharray:3.0,3.0;"/><path d="M1148.0455,365.5946 L1149.9279,362.136 L1147.1348,359.3604 L1155.3828,361.3392 L1148.0455,365.5946 " fill="#000000" style="stroke:#000000;stroke-width:1.0;"/><ellipse cx="1085" cy="366.5" fill="#000000" rx="3" ry="3" style="stroke:#000000;stroke-width:1.0;"/><path d="M1085,386.5 L1098,386.5 C1114.8294,386.5 1133.8647,388.6169 1147.5901,390.5225 " fill="none" style="stroke:#000000;stroke-width:1.0;stroke-dasharray:3.0,3.0;"/><path d="M1147.1348,393.6396 L1149.9279,390.864 L1148.0455,387.4054 L1155.3828,391.6608 L1147.1348,393.6396 " fill="#000000" style="stroke:#000000;stroke-width:1.0;"/><ellipse cx="1085" cy="386.5" fill="#000000" rx="3" ry="3" style="stroke:#000000;stroke-width:1.0;"/><path d="M1085,407.5 L1098,407.5 C1111.9642,407.5 1126.7957,411.6957 1139.0738,416.4225 " fill="none" style="stroke:#000000;stroke-width:1.0;stroke-dasharray:3.0,3.0;"/><path d="M1137.8822,419.3362 L1141.2591,417.3162 L1140.2654,413.5087 L1146.3581,419.4014 L1137.8822,419.3362 " fill="#000000" style="stroke:#000000;stroke-width:1.0;"/><ellipse cx="1085" cy="407.5" fill="#000000" rx="3" ry="3" style="stroke:#000000;stroke-width:1.0;"/><path d="M1085,427.5 L1098,427.5 C1098.0828,427.5 1122.8094,441.9487 1142.5274,453.4783 " fill="none" style="stroke:#000000;stroke-width:1.0;stroke-dasharray:3.0,3.0;"/><path d="M1140.9562,456.1651 L1144.5425,454.6567 L1144.0986,450.7915 L1149.2444,457.4063 L1140.9562,456.1651 " fill="#000000" style="stroke:#000000;stroke-width:1.0;"/><ellipse cx="1085" cy="427.5" fill="#000000" rx="3" ry="3" style="stroke:#000000;stroke-width:1.0;"/><path d="M156,234.5 L169,234.5 C178.4355,234.5 187.9532,234.6881 197.5286,235.048 " fill="none" style="stroke:#000000;stroke-width:1.0;stroke-dasharray:3.0,3.0;"/><path d="M197.3985,238.1244 L199.8359,235.1455 L197.6586,231.9715 L205.2197,235.3732 L197.3985,238.1244 " fill="#000000" style="stroke:#000000;stroke-width:1.0;"/><ellipse cx="156" cy="234.5" fill="#000000" rx="3" ry="3" style="stroke:#000000;stroke-width:1.0;"/><path d="M95,224.5 L108,224.5 C117.374,224.5 127.7885,224.5 136.4714,224.5 " fill="none" style="stroke:#000000;stroke-width:1.0;stroke-dasharray:3.0,3.0;"/><path d="M136.4714,227.5815 L138.7825,224.5 L136.4714,221.4185 L144.1751,224.5 L136.4714,227.5815 " fill="#000000" style="stroke:#000000;stroke-width:1.0;"/><ellipse cx="95" cy="224.5" fill="#000000" rx="3" ry="3" style="stroke:#000000;stroke-width:1.0;"/><!--MD5=[2b0f48587a5c9a8d93dca498a44cbd36]
@startyaml

genomes:
  - dbkey: dm6
    description: D. melanogaster Aug. 2014 (BDGP Release 6 + ISO1 MT/dm6) (dm6)
    id: dm6
    source: ucsc
    doi:
    version:
    checksum:
    blob:
    indexers:
      - genome
    exclude:
      - bfast
  - dbkey: Ecoli-O157-H7-Sakai
    description: "Escherichia coli O157-H7 Sakai"
    id: Ecoli-O157-H7-Sakai
    source: https://swift.rc.nectar.org.au:8888/v1/AUTH_377/public/COMP90014/Assignment1/Ecoli-O157_H7-Sakai-chr.fna
    doi:
    version:
    checksum:
    blob:
    indexers:
      - genome
    exclude:
      - bfast
@endyaml

PlantUML version 1.2022.8(Sun Sep 25 05:00:33 EDT 2022)
(GPL source distribution)
Java Runtime: Java(TM) SE Runtime Environment
JVM: Java HotSpot(TM) 64-Bit Server VM
Default Encoding: UTF-8
Language: en
Country: US
--></g></svg>